[Header]
FileType HTR
DataType HTRS
FileVersion 1
NumSegments 64
NumFrames 4
DataFrameRate 30
EulerRotationOrder ZYX
CalibrationUnits mm
RotationUnits Degrees
GlobalAxisofGravity Y
BoneLengthAxis Y
ScaleFactor 1.0
[SegmentNames&Hierarchy]
Hips	GLOBAL
Spine	Hips
Spine1	Spine
Spine2	Spine1
Neck	Spine2
Head	Neck
LeftEye	Head
RightEye	Head
LeftShoulder	Spine2
LeftArm	LeftShoulder
LeftForeArm	LeftArm
LeftHand	LeftForeArm
LeftHandThumb1	LeftHand
LeftHandThumb2	LeftHandThumb1
LeftHandThumb3	LeftHandThumb2
LeftHandThumb4	LeftHandThumb3
LeftHandIndex1	LeftHand
LeftHandIndex2	LeftHandIndex1
LeftHandIndex3	LeftHandIndex2
LeftHandIndex4	LeftHandIndex3
LeftHandMiddle1	LeftHand
LeftHandMiddle2	LeftHandMiddle1
LeftHandMiddle3	LeftHandMiddle2
LeftHandMiddle4	LeftHandMiddle3
LeftHandRing1	LeftHand
LeftHandRing2	LeftHandRing1
LeftHandRing3	LeftHandRing2
LeftHandRing4	LeftHandRing3
LeftHandPinky1	LeftHand
LeftHandPinky2	LeftHandPinky1
LeftHandPinky3	LeftHandPinky2
LeftHandPinky4	LeftHandPinky3
RightShoulder	Spine2
RightArm	RightShoulder
RightForeArm	RightArm
RightHand	RightForeArm
RightHandPinky1	RightHand
RightHandPinky2	RightHandPinky1
RightHandPinky3	RightHandPinky2
RightHandPinky4	RightHandPinky3
RightHandRing1	RightHand
RightHandRing2	RightHandRing1
RightHandRing3	RightHandRing2
RightHandRing4	RightHandRing3
RightHandMiddle1	RightHand
RightHandMiddle2	RightHandMiddle1
RightHandMiddle3	RightHandMiddle2
RightHandMiddle4	RightHandMiddle3
RightHandIndex1	RightHand
RightHandIndex2	RightHandIndex1
RightHandIndex3	RightHandIndex2
RightHandIndex4	RightHandIndex3
RightHandThumb1	RightHand
RightHandThumb2	RightHandThumb1
RightHandThumb3	RightHandThumb2
RightHandThumb4	RightHandThumb3
LeftUpLeg	Hips
LeftLeg	LeftUpLeg
LeftFoot	LeftLeg
LeftToeBase	LeftFoot
RightUpLeg	Hips
RightLeg	RightUpLeg
RightFoot	RightLeg
RightToeBase	RightFoot
[BasePosition]
Hips	0	0	0	0	0	0	1
Spine	0	0	0	0	0	0	1
Spine1	0	0	0	0	0	0	1
Spine2	0	0	0	0	0	0	1
Neck	0	0	0	0	0	0	1
Head	0	0	0	0	0	0	1
LeftEye	0	0	0	0	0	0	1
RightEye	0	0	0	0	0	0	1
LeftShoulder	0	0	0	0	0	0	1
LeftArm	0	0	0	0	0	0	1
LeftForeArm	0	0	0	0	0	0	1
LeftHand	0	0	0	0	0	0	1
LeftHandThumb1	0	0	0	0	0	0	1
LeftHandThumb2	0	0	0	0	0	0	1
LeftHandThumb3	0	0	0	0	0	0	1
LeftHandThumb4	0	0	0	0	0	0	1
LeftHandIndex1	0	0	0	0	0	0	1
LeftHandIndex2	0	0	0	0	0	0	1
LeftHandIndex3	0	0	0	0	0	0	1
LeftHandIndex4	0	0	0	0	0	0	1
LeftHandMiddle1	0	0	0	0	0	0	1
LeftHandMiddle2	0	0	0	0	0	0	1
LeftHandMiddle3	0	0	0	0	0	0	1
LeftHandMiddle4	0	0	0	0	0	0	1
LeftHandRing1	0	0	0	0	0	0	1
LeftHandRing2	0	0	0	0	0	0	1
LeftHandRing3	0	0	0	0	0	0	1
LeftHandRing4	0	0	0	0	0	0	1
LeftHandPinky1	0	0	0	0	0	0	1
LeftHandPinky2	0	0	0	0	0	0	1
LeftHandPinky3	0	0	0	0	0	0	1
LeftHandPinky4	0	0	0	0	0	0	1
RightShoulder	0	0	0	0	0	0	1
RightArm	0	0	0	0	0	0	1
RightForeArm	0	0	0	0	0	0	1
RightHand	0	0	0	0	0	0	1
RightHandPinky1	0	0	0	0	0	0	1
RightHandPinky2	0	0	0	0	0	0	1
RightHandPinky3	0	0	0	0	0	0	1
RightHandPinky4	0	0	0	0	0	0	1
RightHandRing1	0	0	0	0	0	0	1
RightHandRing2	0	0	0	0	0	0	1
RightHandRing3	0	0	0	0	0	0	1
RightHandRing4	0	0	0	0	0	0	1
RightHandMiddle1	0	0	0	0	0	0	1
RightHandMiddle2	0	0	0	0	0	0	1
RightHandMiddle3	0	0	0	0	0	0	1
RightHandMiddle4	0	0	0	0	0	0	1
RightHandIndex1	0	0	0	0	0	0	1
RightHandIndex2	0	0	0	0	0	0	1
RightHandIndex3	0	0	0	0	0	0	1
RightHandIndex4	0	0	0	0	0	0	1
RightHandThumb1	0	0	0	0	0	0	1
RightHandThumb2	0	0	0	0	0	0	1
RightHandThumb3	0	0	0	0	0	0	1
RightHandThumb4	0	0	0	0	0	0	1
LeftUpLeg	0	0	0	0	0	0	1
LeftLeg	0	0	0	0	0	0	1
LeftFoot	0	0	0	0	0	0	1
LeftToeBase	0	0	0	0	0	0	1
RightUpLeg	0	0	0	0	0	0	1
RightLeg	0	0	0	0	0	0	1
RightFoot	0	0	0	0	0	0	1
RightToeBase	0	0	0	0	0	0	1
[Hips]
54	13.41164684	1011.579346	-18.78655624	1.988361239	4.208359241	-5.664509773	1.0
55	13.50644875	1014.229126	-16.56684685	0.9146878719	2.208079576	-5.368365765	1.0
56	12.95430088	1016.57666	-13.87418365	-0.07568494976	0.3134893775	-5.033071995	1.0
57	12.28350735	1019.019653	-11.12802124	-0.9347712994	-1.059427738	-4.755734444	1.0
[Spine]
54	0	101.8159943	1.315000057	3.87907958	3.36695075	2.526653528	1.0
55	0	101.8159943	1.315000057	3.982511282	3.309433699	2.76000452	1.0
56	0	101.8159943	1.315000057	4.148210049	3.25267458	2.926476479	1.0
57	0	101.8159943	1.315000057	4.256917477	3.003521204	3.007173538	1.0
[Spine1]
54	0	100.8349991	-10.00800037	1.283526659	0.7231487632	1.48275733	1.0
55	0	100.8349991	-10.00800037	1.300881386	0.738843441	1.543609142	1.0
56	0	100.8349991	-10.00800037	1.343033433	0.7554368973	1.585321546	1.0
57	0	100.8349991	-10.00800037	1.375670433	0.7092587948	1.605713487	1.0
[Spine2]
54	0	91	-13.73399925	1.24980104	0.7580186129	1.490919471	1.0
55	0	91	-13.73399925	1.268635392	0.7715489268	1.550077081	1.0
56	0	91	-13.73399925	1.312349916	0.7857632041	1.590128779	1.0
57	0	91	-13.73399925	1.346449852	0.7378941774	1.609358549	1.0
[Neck]
54	0	166.7169952	-25.16200066	6.277799606	-1.950492263	0.2321429253	1.0
55	0	166.7169952	-25.16200066	6.093930244	-1.641252995	0.0563890785	1.0
56	0	166.7169952	-25.16200066	5.967363834	-1.352937818	-0.02385636792	1.0
57	0	166.7169952	-25.16200066	5.925880909	-1.091072798	0.02569789439	1.0
[Head]
54	0	96.17900085	16.84999847	-9.710204124	-9.16735363	7.543362617	1.0
55	0	96.17900085	16.84999847	-9.029400826	-7.666736126	6.320774078	1.0
56	0	96.17900085	16.84999847	-8.691731453	-6.068405151	5.013927937	1.0
57	0	96.17900085	16.84999847	-8.572790146	-4.480784416	3.791994095	1.0
[LeftEye]
54	30.6760006	64.09500122	92.83599854	0	0	0	1.0
55	30.6760006	64.09500122	92.83599854	0	0	0	1.0
56	30.6760006	64.09500122	92.83599854	0	0	0	1.0
57	30.6760006	64.09500122	92.83599854	0	0	0	1.0
[RightEye]
54	-30.6760006	64.09500122	92.83499908	0	0	0	1.0
55	-30.6760006	64.09500122	92.83499908	0	0	0	1.0
56	-30.6760006	64.09500122	92.83499908	0	0	0	1.0
57	-30.6760006	64.09500122	92.83499908	0	0	0	1.0
[LeftShoulder]
54	45.70400238	109.4599991	-26.28000069	4.965986729	-17.70707703	-12.86503124	1.0
55	45.70400238	109.4599991	-26.28000069	4.996389389	-17.64892387	-13.07946014	1.0
56	45.70400238	109.4599991	-26.28000069	4.960390091	-17.420084	-12.99435043	1.0
57	45.70400238	109.4599991	-26.28000069	4.903105736	-17.32326889	-12.75603867	1.0
[LeftArm]
54	105.923996	-5.24600029	-22.32099915	26.35338211	-5.458346844	-64.97340393	1.0
55	105.923996	-5.24600029	-22.32099915	24.75161552	-4.520488262	-65.20700836	1.0
56	105.923996	-5.24600029	-22.32099915	24.08862877	-4.92444849	-64.99246979	1.0
57	105.923996	-5.24600029	-22.32099915	23.67949677	-5.351666451	-64.93067932	1.0
[LeftForeArm]
54	278.414978	-0.0009999999311	0	4.377151072e-06	-24.81141663	-0.0002096568351	1.0
55	278.414978	-0.0009999999311	0	9.053925965e-07	-23.25924873	-0.0001965910778	1.0
56	278.414978	-0.0009999999311	0	-1.002520821e-05	-21.93690681	-0.0001950561418	1.0
57	278.414978	-0.0009999999311	0	2.993892394e-06	-20.48439598	-0.0001963554096	1.0
[LeftHand]
54	283.2879944	0	0	-33.22966766	-7.258190155	-0.9592365026	1.0
55	283.2879944	0	0	-35.01426697	-5.905752659	0.3591742218	1.0
56	283.2879944	0	0	-34.98090363	-5.189902782	0.1085486934	1.0
57	283.2879944	0	0	-32.93583298	-4.678442955	-0.09590350837	1.0
[LeftHandThumb1]
54	24.6609993	-15.75	26.8239994	-0.4891124964	2.201071978	4.818427563	1.0
55	24.6609993	-15.75	26.8239994	-0.4890159965	2.201314688	4.81851387	1.0
56	24.6609993	-15.75	26.8239994	-0.4889443815	2.201485395	4.818580627	1.0
57	24.6609993	-15.75	26.8239994	-0.4889685214	2.201431274	4.818540573	1.0
[LeftHandThumb2]
54	32.29800034	-18.64699936	18.64699936	14.91769981	22.82185745	22.19932556	1.0
55	32.29800034	-18.64699936	18.64699936	16.75837326	22.28757668	22.2405529	1.0
56	32.29800034	-18.64699936	18.64699936	18.31313515	21.77795219	22.17476654	1.0
57	32.29800034	-18.64699936	18.64699936	19.23941422	21.58073807	22.23274612	1.0
[LeftHandThumb3]
54	26.52600098	-15.31499958	15.31499958	-12.79253864	7.708174706	8.047468185	1.0
55	26.52600098	-15.31499958	15.31499958	-12.91365623	6.975979328	7.999746799	1.0
56	26.52600098	-15.31499958	15.31499958	-13.00970078	6.372547626	7.943132877	1.0
57	26.52600098	-15.31499958	15.31499958	-13.06937122	6.006192684	7.938933372	1.0
[LeftHandThumb4]
54	19.54599953	-11.28499985	11.28499985	0	0	0	1.0
55	19.54599953	-11.28499985	11.28499985	0	0	0	1.0
56	19.54599953	-11.28499985	11.28499985	0	0	0	1.0
57	19.54599953	-11.28499985	11.28499985	0	0	0	1.0
[LeftHandIndex1]
54	91.09299469	-5.170999527	22.60099792	-0.1628252566	-1.52978909	-8.624023438	1.0
55	91.09299469	-5.170999527	22.60099792	-0.02499483712	-0.9546644092	-9.493617058	1.0
56	91.09299469	-5.170999527	22.60099792	0.1626230031	-0.2870918512	-10.1973629	1.0
57	91.09299469	-5.170999527	22.60099792	0.2716473639	0.04496221989	-10.38471508	1.0
[LeftHandIndex2]
54	36.76399994	0	0	-0.2648859322	1.739345193	-17.31656456	1.0
55	36.76399994	0	0	-0.2650768161	1.739988208	-17.32314873	1.0
56	36.76399994	0	0	-0.2652751207	1.740616322	-17.32961082	1.0
57	36.76399994	0	0	-0.2654787004	1.74126339	-17.3362751	1.0
[LeftHandIndex3]
54	28.83100128	0	0	-0.05657104403	0.8112915158	-7.97850132	1.0
55	28.83100128	0	0	-0.05667120218	0.8119525909	-7.98509264	1.0
56	28.83100128	0	0	-0.05676205084	0.8126097918	-7.991569996	1.0
57	28.83100128	0	0	-0.05685291067	0.8132844567	-7.99819994	1.0
[LeftHandIndex4]
54	23.92700005	0	0	0	0	0	1.0
55	23.92700005	0	0	0	0	0	1.0
56	23.92700005	0	0	0	0	0	1.0
57	23.92700005	0	0	0	0	0	1.0
[LeftHandMiddle1]
54	95.33399963	0	0	-0.8945717216	2.90177989	-17.17238045	1.0
55	95.33399963	0	0	-0.9310151935	3.162077188	-17.68856812	1.0
56	95.33399963	0	0	-0.9601430297	3.293037653	-18.09788132	1.0
57	95.33399963	0	0	-0.9724888802	3.357917309	-18.27059364	1.0
[LeftHandMiddle2]
54	36.98199844	0	0	-0.2666428685	1.744981885	-17.37450409	1.0
55	36.98199844	0	0	-0.2674157619	1.74745667	-17.39995003	1.0
56	36.98199844	0	0	-0.2680126727	1.749341965	-17.41940117	1.0
57	36.98199844	0	0	-0.268027097	1.749395728	-17.41991234	1.0
[LeftHandMiddle3]
54	29.50900078	0	0	-0.2981644571	1.842659831	-18.38150787	1.0
55	29.50900078	0	0	-0.2989624441	1.845055938	-18.40629387	1.0
56	29.50900078	0	0	-0.2995768189	1.846923113	-18.42557526	1.0
57	29.50900078	0	0	-0.2996018231	1.846972227	-18.42612457	1.0
[LeftHandMiddle4]
54	28.3390007	0	0	0	0	0	1.0
55	28.3390007	0	0	0	0	0	1.0
56	28.3390007	0	0	0	0	0	1.0
57	28.3390007	0	0	0	0	0	1.0
[LeftHandRing1]
54	91.04499817	-0.4390000105	-18.65100098	-1.186952829	2.8749547	-21.20517731	1.0
55	91.04499817	-0.4390000105	-18.65100098	-1.23120904	3.003295183	-21.78515625	1.0
56	91.04499817	-0.4390000105	-18.65100098	-1.282173038	3.091085434	-22.44770432	1.0
57	91.04499817	-0.4390000105	-18.65100098	-1.304268479	3.141518831	-22.73220825	1.0
[LeftHandRing2]
54	31.54000092	0	0	-0.3913187087	2.102174282	-21.08745575	1.0
55	31.54000092	0	0	-0.3902372122	2.0993855	-21.05809784	1.0
56	31.54000092	0	0	-0.3887959719	2.095627546	-21.01854897	1.0
57	31.54000092	0	0	-0.3876036406	2.092532873	-20.98598862	1.0
[LeftHandRing3]
54	29.37700081	0	0	-0.287393868	1.809947252	-18.04361343	1.0
55	29.37700081	0	0	-0.2864534557	1.807049274	-18.01373291	1.0
56	29.37700081	0	0	-0.285207063	1.803198576	-17.97400284	1.0
57	29.37700081	0	0	-0.284175843	1.800023913	-17.94128609	1.0
[LeftHandRing4]
54	26.47500038	0	0	0	0	0	1.0
55	26.47500038	0	0	0	0	0	1.0
56	26.47500038	0	0	0	0	0	1.0
57	26.47500038	0	0	0	0	0	1.0
[LeftHandPinky1]
54	80.77799988	-4.887000084	-38.06099701	-1.725904584	4.122849464	-27.3523159	1.0
55	80.77799988	-4.887000084	-38.06099701	-1.739342809	4.206055641	-27.47108078	1.0
56	80.77799988	-4.887000084	-38.06099701	-1.759841204	4.150101662	-27.68560791	1.0
57	80.77799988	-4.887000084	-38.06099701	-1.773799539	4.169825554	-27.8620739	1.0
[LeftHandPinky2]
54	36	0	0	-0.2734975219	1.766732216	-17.59825897	1.0
55	36	0	0	-0.2723442912	1.763107181	-17.56093025	1.0
56	36	0	0	-0.2710397243	1.758967161	-17.51833916	1.0
57	36	0	0	-0.2699195445	1.75543046	-17.48193741	1.0
[LeftHandPinky3]
54	21.14200211	0	0	-0.2464395314	1.679078698	-16.69827843	1.0
55	21.14200211	0	0	-0.2453411818	1.675429344	-16.6608963	1.0
56	21.14200211	0	0	-0.2440977991	1.671267986	-16.61828613	1.0
57	21.14200211	0	0	-0.2430477291	1.667712092	-16.58192062	1.0
[LeftHandPinky4]
54	19.75699997	0	0	0	0	0	1.0
55	19.75699997	0	0	0	0	0	1.0
56	19.75699997	0	0	0	0	0	1.0
57	19.75699997	0	0	0	0	0	1.0
[RightShoulder]
54	-45.70000076	109.4620056	-26.28000069	5.323913574	15.69428539	14.81588936	1.0
55	-45.70000076	109.4620056	-26.28000069	5.437106609	15.90339661	15.39792728	1.0
56	-45.70000076	109.4620056	-26.28000069	5.543565273	16.16103172	15.9254055	1.0
57	-45.70000076	109.4620056	-26.28000069	5.617192745	16.18106842	16.39264488	1.0
[RightArm]
54	-105.9280014	-5.248000145	-22.32099915	52.44218063	23.20641708	53.67835999	1.0
55	-105.9280014	-5.248000145	-22.32099915	52.2483902	21.18108749	53.60161972	1.0
56	-105.9280014	-5.248000145	-22.32099915	51.58321762	19.254776	53.94681549	1.0
57	-105.9280014	-5.248000145	-22.32099915	50.2311058	17.69227982	54.87584305	1.0
[RightForeArm]
54	-278.414978	0	0	1.792415446e-06	60.36964798	9.703627484e-07	1.0
55	-278.414978	0	0	2.036662408e-06	57.80046082	7.945110383e-07	1.0
56	-278.414978	0	0	2.598658057e-06	53.61718369	8.780226381e-06	1.0
57	-278.414978	0	0	4.131822607e-06	47.86519623	1.162429362e-05	1.0
[RightHand]
54	-283.2879944	0	0.0009999999311	-9.965326309	25.13993454	17.28257561	1.0
55	-283.2879944	0	0.0009999999311	-9.96462059	26.39208031	16.27873611	1.0
56	-283.2879944	0	0.0009999999311	-9.771954536	26.22480202	15.90336514	1.0
57	-283.2879944	0	0.0009999999311	-9.600302696	24.88376808	16.34287453	1.0
[RightHandPinky1]
54	-80.76699829	-4.885000229	-38.06000137	-4.057918549	-6.438707829	49.78647995	1.0
55	-80.76699829	-4.885000229	-38.06000137	-4.43420887	-6.811843395	52.16485596	1.0
56	-80.76699829	-4.885000229	-38.06000137	-4.700742245	-6.927643299	54.2640686	1.0
57	-80.76699829	-4.885000229	-38.06000137	-4.800138474	-6.7652812	55.90726852	1.0
[RightHandPinky2]
54	-36	0	0.0009999999311	-1.096176624	-2.993798971	40.23863983	1.0
55	-36	0	0.0009999999311	-1.275829196	-3.194127083	43.56814957	1.0
56	-36	0	0.0009999999311	-1.420010448	-3.338553667	46.09375763	1.0
57	-36	0	0.0009999999311	-1.514338255	-3.426659584	47.69154739	1.0
[RightHandPinky3]
54	-21.14200211	0	0	-1.050556183	-2.939095259	39.33769226	1.0
55	-21.14200211	0	0	-1.227205753	-3.14227128	42.66876984	1.0
56	-21.14200211	0	0	-1.369246602	-3.28898859	45.19564438	1.0
57	-21.14200211	0	0	-1.46221745	-3.378583908	46.79404831	1.0
[RightHandPinky4]
54	-19.75699997	0	0	0	0	0	1.0
55	-19.75699997	0	0	0	0	0	1.0
56	-19.75699997	0	0	0	0	0	1.0
57	-19.75699997	0	0	0	0	0	1.0
[RightHandRing1]
54	-91.03599548	-0.4390000105	-18.65100098	-2.848974466	-3.069974899	44.02845764	1.0
55	-91.03599548	-0.4390000105	-18.65100098	-3.039878845	-3.679854393	46.24649811	1.0
56	-91.03599548	-0.4390000105	-18.65100098	-3.196306944	-4.171314716	48.03805542	1.0
57	-91.03599548	-0.4390000105	-18.65100098	-3.325367689	-4.374685287	49.5114975	1.0
[RightHandRing2]
54	-31.54000092	0	0	-1.333635211	-3.253456831	44.57408142	1.0
55	-31.54000092	0	0	-1.521504283	-3.433616638	47.79576874	1.0
56	-31.54000092	0	0	-1.673112869	-3.564642906	50.27604294	1.0
57	-31.54000092	0	0	-1.764314771	-3.638337135	51.72802734	1.0
[RightHandRing3]
54	-29.37700081	0	0	-1.164096475	-3.072164536	41.50200653	1.0
55	-29.37700081	0	0	-1.342207432	-3.262340546	44.72630692	1.0
56	-29.37700081	0	0	-1.486745477	-3.401468039	47.20906448	1.0
57	-29.37700081	0	0	-1.573910713	-3.479944944	48.66112137	1.0
[RightHandRing4]
54	-26.47500038	0	0	0	0	0	1.0
55	-26.47500038	0	0	0	0	0	1.0
56	-26.47500038	0	0	0	0	0	1.0
57	-26.47500038	0	0	0	0	0	1.0
[RightHandMiddle1]
54	-95.32500458	0	0	-2.440274715	-1.820941687	39.17684937	1.0
55	-95.32500458	0	0	-2.57649684	-2.513396263	40.80512619	1.0
56	-95.32500458	0	0	-2.696005106	-3.121860027	42.21559525	1.0
57	-95.32500458	0	0	-2.80405879	-3.519279718	43.48919296	1.0
[RightHandMiddle2]
54	-36.98199844	0	0	-1.151682377	-3.058041334	41.26934433	1.0
55	-36.98199844	0	0	-1.328535676	-3.248539448	44.4860611	1.0
56	-36.98199844	0	0	-1.470817804	-3.386674404	46.94014359	1.0
57	-36.98199844	0	0	-1.555239797	-3.463494539	48.35323334	1.0
[RightHandMiddle3]
54	-29.50900078	0	0	-1.204567552	-3.119175196	42.25069046	1.0
55	-29.50900078	0	0	-1.384837866	-3.306782722	45.47071457	1.0
56	-29.50900078	0	0	-1.529736996	-3.442738295	47.93001556	1.0
57	-29.50900078	0	0	-1.615689516	-3.518231153	49.34631348	1.0
[RightHandMiddle4]
54	-28.3390007	0	0.0009999999311	0	0	0	1.0
55	-28.3390007	0	0.0009999999311	0	0	0	1.0
56	-28.3390007	0	0.0009999999311	0	0	0	1.0
57	-28.3390007	0	0.0009999999311	0	0	0	1.0
[RightHandIndex1]
54	-91.08300018	-5.167999744	22.60099792	0.2730653882	-0.2408859432	25.32377815	1.0
55	-91.08300018	-5.167999744	22.60099792	0.4088532031	-0.5457761288	28.11943817	1.0
56	-91.08300018	-5.167999744	22.60099792	0.480861634	-0.807454586	30.75701714	1.0
57	-91.08300018	-5.167999744	22.60099792	0.4413952529	-1.004529595	33.31914902	1.0
[RightHandIndex2]
54	-36.76399994	0	0	-1.101040244	-2.999338388	40.31005096	1.0
55	-36.76399994	0	0	-1.286393523	-3.205115318	43.73716736	1.0
56	-36.76399994	0	0	-1.439297318	-3.356964588	46.4039917	1.0
57	-36.76399994	0	0	-1.534959793	-3.445343018	48.01627731	1.0
[RightHandIndex3]
54	-28.83100128	0	0	-0.6575521231	-2.380409956	30.88128662	1.0
55	-28.83100128	0	0	-0.8074293137	-2.615049601	34.32434082	1.0
56	-28.83100128	0	0	-0.9342035651	-2.791033268	37.00677872	1.0
57	-28.83100128	0	0	-1.014764428	-2.894595861	38.62998199	1.0
[RightHandIndex4]
54	-23.92700005	0	0	0	0	0	1.0
55	-23.92700005	0	0	0	0	0	1.0
56	-23.92700005	0	0	0	0	0	1.0
57	-23.92700005	0	0	0	0	0	1.0
[RightHandThumb1]
54	-24.64799881	-15.72700024	26.82600021	-1.65783298	-0.29096964	-4.221916676	1.0
55	-24.64799881	-15.72700024	26.82600021	-1.658414483	-0.2892495394	-4.221362591	1.0
56	-24.64799881	-15.72700024	26.82600021	-1.658636093	-0.2885830104	-4.221148491	1.0
57	-24.64799881	-15.72700024	26.82600021	-1.658503413	-0.2890043557	-4.22128582	1.0
[RightHandThumb2]
54	-32.29800034	-18.64699936	18.64699936	18.58408928	-13.45770931	-26.72174454	1.0
55	-32.29800034	-18.64699936	18.64699936	18.73277092	-14.08276463	-26.18815613	1.0
56	-32.29800034	-18.64699936	18.64699936	19.13596153	-15.39382648	-25.65143776	1.0
57	-32.29800034	-18.64699936	18.64699936	19.75528908	-17.2404232	-25.13471222	1.0
[RightHandThumb3]
54	-26.52600098	-15.31399918	15.31399918	-14.66930103	-6.823199272	-14.15433311	1.0
55	-26.52600098	-15.31399918	15.31399918	-14.62193298	-6.775039196	-13.34107971	1.0
56	-26.52600098	-15.31399918	15.31399918	-14.56129932	-6.779622078	-12.6120491	1.0
57	-26.52600098	-15.31399918	15.31399918	-14.51431751	-6.79072094	-12.07446861	1.0
[RightHandThumb4]
54	-19.54599953	-11.28499985	11.28499985	0	0	0	1.0
55	-19.54599953	-11.28499985	11.28499985	0	0	0	1.0
56	-19.54599953	-11.28499985	11.28499985	0	0	0	1.0
57	-19.54599953	-11.28499985	11.28499985	0	0	0	1.0
[LeftUpLeg]
54	82.07800293	-67.51699829	-15.99599934	-25.2756424	13.21474838	6.471682549	1.0
55	82.07800293	-67.51699829	-15.99599934	-22.96578979	14.1160593	6.700437069	1.0
56	82.07800293	-67.51699829	-15.99599934	-20.75051498	14.92190361	6.927835941	1.0
57	82.07800293	-67.51699829	-15.99599934	-18.71026039	15.25998306	7.087418556	1.0
[LeftLeg]
54	0	-443.7049866	2.845999956	24.52849388	-4.99179697	1.381104469	1.0
55	0	-443.7049866	2.845999956	23.65217018	-4.093082428	1.813722253	1.0
56	0	-443.7049866	2.845999956	22.79065514	-3.20337677	2.243865013	1.0
57	0	-443.7049866	2.845999956	21.71328163	-2.353565693	2.806616545	1.0
[LeftFoot]
54	0	-444.2789917	-29.8219986	-1.549815774	0.6808488369	-4.460312366	1.0
55	0	-444.2789917	-29.8219986	-1.564605832	0.687867403	-4.686825752	1.0
56	0	-444.2789917	-29.8219986	-1.581283569	0.6982853413	-4.967811584	1.0
57	0	-444.2789917	-29.8219986	-1.424043536	0.6824650764	-5.325356483	1.0
[LeftToeBase]
54	0	-87.28699493	107.1060028	-4.92852354	1.257126087e-06	-9.401290981e-07	1.0
55	0	-87.28699493	107.1060028	-4.92852354	-3.922521046e-06	7.837404326e-08	1.0
56	0	-87.28699493	107.1060028	-4.928531647	5.816255907e-06	2.373867716e-07	1.0
57	0	-87.28699493	107.1060028	-4.928524017	3.015489028e-06	-1.081525056e-06	1.0
[RightUpLeg]
54	-82.07800293	-67.51699829	-15.99599934	-14.73880386	-10.07929516	5.806549072	1.0
55	-82.07800293	-67.51699829	-15.99599934	-12.93398666	-9.712140083	5.545381546	1.0
56	-82.07800293	-67.51699829	-15.99599934	-11.26752472	-9.452039719	5.271395683	1.0
57	-82.07800293	-67.51699829	-15.99599934	-9.634562492	-9.415657043	5.023406029	1.0
[RightLeg]
54	0	-443.7049866	2.861999989	22.25306129	-8.747613907	-4.846541882	1.0
55	0	-443.7049866	2.861999989	21.14293289	-8.623407364	-5.288753033	1.0
56	0	-443.7049866	2.861999989	20.16738701	-8.529349327	-5.690666199	1.0
57	0	-443.7049866	2.861999989	18.99534416	-8.518464088	-5.926883698	1.0
[RightFoot]
54	0	-444.2770081	-29.83799934	-9.392477989	-10.47891617	4.840713978	1.0
55	0	-444.2770081	-29.83799934	-8.754719734	-9.043477058	4.791930676	1.0
56	0	-444.2770081	-29.83799934	-8.243250847	-7.574317455	4.742731094	1.0
57	0	-444.2770081	-29.83799934	-7.711234093	-6.364593029	4.662394047	1.0
[RightToeBase]
54	0	-87.28699493	107.1060028	-7.282876492	7.569909485e-06	1.91932898e-07	1.0
55	0	-87.28699493	107.1060028	-7.282877922	1.01237074e-05	-4.777131721e-07	1.0
56	0	-87.28699493	107.1060028	-7.282876015	-4.556812655e-06	-6.846997849e-07	1.0
57	0	-87.28699493	107.1060028	-7.282873154	7.88417492e-06	-1.286131919e-06	1.0
[EndOfFile]
